# xmcd
# Track frame offsets:
# 165
# 13644
# 30179
# 46674
# 58297
# 76880
# 88608
# 104948
# 120153
# 133423
# 151314
# 165115
# 181778
# 194508
# 209875
# 222967
#
# Disc length: 3184 seconds
# Revision: 0
# Processed by: cddbd v1.4PL0 Copyright (c) Steve Scherf et al.
# Submitted via: VisiTrax 2.9.5.180 - For more info visit www.synapsa.com
#
DISCID=d50c6e10
DTITLE=Eamon McCann - Clear cut country
DYEAR=1900
DGENRE=Irsk
TTITLE0=Forever you'll be mine
TTITLE1=Same ol' love
TTITLE2=But for me
TTITLE3=Borders and boundaries
TTITLE4=God only knows
TTITLE5=I will love till this ring turns green
TTITLE6=What are we gonna do about me
TTITLE7=Walk the way the wind blows
TTITLE8=If you wanna find love
TTITLE9=The selfishness in man
TTITLE10=Livin' in this troubled times
TTITLE11=She only sees the face
TTITLE12=You can't take it with you
TTITLE13=Rosy bouquet
TTITLE14=I've gone crazy
TTITLE15=The deck of cards
EXTD=
EXTT0=
EXTT1=
EXTT2=
EXTT3=
EXTT4=
EXTT5=
EXTT6=
EXTT7=
EXTT8=
EXTT9=
EXTT10=
EXTT11=
EXTT12=
EXTT13=
EXTT14=
EXTT15=
PLAYORDER=
